<?xml version="1.0" standalone="no"?>
<!DOCTYPE svg PUBLIC "-//W3C//DTD SVG 20010904//EN" "http://www.w3.org/TR/2001/REC-SVG-20010904/DTD/svg10.dtd">
<!-- Created using Krita: https://krita.org -->
<svg xmlns="http://www.w3.org/2000/svg" 
    xmlns:xlink="http://www.w3.org/1999/xlink"
    xmlns:krita="http://krita.org/namespaces/svg/krita"
    xmlns:sodipodi="http://sodipodi.sourceforge.net/DTD/sodipodi-0.dtd"
    width="299.52pt"
    height="134.352pt"
    viewBox="0 0 299.52 134.352">
<defs/>
<path id="shape0" transform="translate(18.7028587481259, 68.0593500668332)" fill="#ffffff" fill-rule="evenodd" stroke="#ffffff" stroke-width="2.72" stroke-linecap="square" stroke-linejoin="bevel" d="M43.7375 10.4674C37.9257 13.0337 32.6004 20.1667 27.7618 31.8666C22.9232 43.5665 20.4714 51.3965 20.4063 55.3568C22.7639 58.935 25.4967 60.5651 28.6048 60.2473C33.267 59.7705 59.631 49.8145 69.5412 35.4536C79.4515 21.0927 77.6928 12.3676 74.8416 7.38864C71.9904 2.40966 53.9694 -5.54433 31.8837 5.78143C9.79794 17.1072 -0.642781 27.9691 0.0305828 31.0224C0.703946 34.0757 1.5909 38.3377 8.45176 38.4871C15.3126 38.6365 11.3933 38.4657 8.76274 34.3118C6.13215 30.1579 23.8444 16.4169 33.0868 10.4246C42.3292 4.43241 63.9849 1.97889 68.2071 5.54084C72.4292 9.10279 73.2175 20.3791 58.1927 36.9796C48.1762 48.0467 39.8886 53.6094 33.3297 53.6677C34.4686 40.8328 38.1589 29.9688 44.4008 21.0758C46.957 16.9509 50.8211 8.9415 43.7375 10.4674Z" sodipodi:nodetypes="czczzzzzzzzzzccc"/><path id="shape1" transform="translate(96.39, 68.844)" fill="#ffffff" fill-rule="evenodd" stroke="#ffffff" stroke-width="1.68" stroke-linecap="square" stroke-linejoin="bevel" d="M28.485 3.492L28.306 3.267L28.12 3.049L27.927 2.838L27.728 2.635L27.523 2.44L27.31 2.251L27.091 2.071L26.865 1.897L26.633 1.731L26.394 1.573L26.149 1.422L25.897 1.278L25.638 1.142L25.372 1.014L25.1 0.892L24.822 0.779L24.536 0.672L24.244 0.573L23.946 0.482L23.64 0.398L23.328 0.321L23.01 0.252L22.831 0.22L22.649 0.196L22.462 0.181L22.273 0.173L22.079 0.173L21.883 0.181L21.683 0.197L21.48 0.22L21.275 0.251L21.066 0.289L20.854 0.335L20.64 0.388L20.423 0.448L20.203 0.515L19.981 0.589L19.756 0.67L19.529 0.758L19.3 0.853L19.069 0.954L18.836 1.061L18.601 1.176L18.364 1.296L18.126 1.423L17.886 1.556L17.644 1.695L17.401 1.84L17.156 1.991L16.91 2.147L16.664 2.31L16.416 2.478L16.167 2.651L15.917 2.83L15.666 3.015L15.415 3.204L15.163 3.399L14.911 3.599L14.658 3.804L14.405 4.014L14.152 4.228L13.899 4.448L13.646 4.672L13.392 4.9L13.139 5.133L12.886 5.37L12.634 5.612L12.382 5.858L12.131 6.108L11.88 6.361L11.63 6.619L11.38 6.881L11.132 7.146L10.885 7.415L10.639 7.688L10.394 7.964L10.15 8.243L9.908 8.526L9.667 8.811L9.428 9.1L9.191 9.392L8.955 9.687L8.732 9.972L8.509 10.262L8.287 10.558L8.066 10.858L7.846 11.163L7.627 11.473L7.409 11.786L7.193 12.104L6.977 12.425L6.763 12.749L6.551 13.077L6.34 13.407L6.131 13.739L5.924 14.074L5.718 14.411L5.515 14.75L5.314 15.09L5.115 15.432L4.918 15.774L4.724 16.117L4.532 16.46L4.343 16.804L4.156 17.147L3.972 17.49L3.791 17.833L3.614 18.174L3.4386 18.515L3.2669 18.854L3.0984 19.191L2.9333 19.526L2.7717 19.859L2.6136 20.19L2.4591 20.518L2.3084 20.842L2.1615 21.164L2.0186 21.482L1.8797 21.796L1.7449 22.106L1.6144 22.412L1.4882 22.713L1.3664 23.009L1.2491 23.3L1.1364 23.586L1.0284 23.866L0.9252 24.14L0.827 24.408L0.7337 24.67L0.6456 24.925L0.5626 25.173L0.4849 25.413L0.4126 25.646L0.3457 25.872L0.2845 26.089L0.2289 26.298L0.1791 26.498L0.1352 26.69L0.0972 26.872L0.0653 27.046L0.0395 27.209L0.02 27.363L0.0069 27.506L0.0002 27.64L0 27.762L0.0126 28.014L0.0371 28.277L0.0736 28.549L0.122 28.831L0.1822 29.12L0.2542 29.415L0.338 29.714L0.4334 30.018L0.5405 30.323L0.6593 30.63L0.7895 30.936L0.9313 31.241L1.0846 31.543L1.2493 31.841L1.4253 32.134L1.6127 32.42L1.8114 32.698L2.0213 32.967L2.2424 33.226L2.4746 33.473L2.718 33.707L2.9724 33.926L3.2378 34.131L3.5142 34.319L3.801 34.488L4.1 34.639L4.409 34.768L4.728 34.876L5.059 34.961L5.4 35.022L5.816 35.078L6.197 35.126L6.549 35.166L6.871 35.198L7.168 35.221L7.442 35.236L7.695 35.243L7.93 35.241L8.15 35.23L8.356 35.211L8.553 35.182L8.741 35.145L8.925 35.098L9.106 35.043L9.287 34.978L9.47 34.903L9.659 34.819L9.855 34.726L10.062 34.622L10.281 34.509L10.516 34.386L10.769 34.253L11.043 34.11L11.34 33.957L11.421 33.913L11.505 33.861L11.593 33.801L11.686 33.734L11.782 33.659L11.882 33.576L11.986 33.485L12.094 33.387L12.206 33.281L12.322 33.167L12.442 33.045L12.566 32.916L12.694 32.779L12.825 32.634L12.961 32.481L13.1 32.321L13.244 32.152L13.391 31.976L13.542 31.793L13.698 31.601L13.857 31.402L14.02 31.195L14.187 30.98L14.358 30.758L14.533 30.528L14.711 30.29L14.894 30.044L15.081 29.79L15.271 29.529L15.466 29.26L15.664 28.983L15.867 28.699L16.073 28.406L16.283 28.106L16.497 27.799L16.716 27.483L16.938 27.16L17.163 26.829L17.393 26.49L17.627 26.143L17.865 25.789L18.107 25.427L18.352 25.057L18.602 24.68L18.855 24.294L19.113 23.901L19.374 23.5L19.639 23.092L19.909 22.675L20.182 22.251L20.459 21.819L20.74 21.38L21.025 20.932L21.313 20.477L21.606 20.014L21.903 19.544L22.204 19.065L22.508 18.579L22.817 18.085L23.129 17.584L23.445 17.074L23.766 16.557L24.09 16.032L24.012 16.33L23.94 16.623L23.872 16.912L23.808 17.197L23.75 17.477L23.696 17.753L23.647 18.025L23.603 18.292L23.564 18.555L23.53 18.813L23.5 19.067L23.475 19.317L23.455 19.562L23.44 19.803L23.429 20.04L23.423 20.272L23.422 20.5L23.426 20.723L23.435 20.942L23.448 21.157L23.467 21.367L23.49 21.573L23.517 21.775L23.55 21.972L23.602 22.23L23.668 22.5L23.748 22.781L23.842 23.071L23.949 23.37L24.07 23.674L24.205 23.983L24.354 24.295L24.516 24.608L24.692 24.92L24.881 25.231L25.084 25.538L25.3 25.84L25.53 26.134L25.773 26.421L26.029 26.697L26.298 26.962L26.581 27.213L26.877 27.449L27.185 27.668L27.507 27.87L27.842 28.051L28.19 28.211L28.55 28.348L28.923 28.46L29.31 28.546L29.708 28.604L30.12 28.632L30.798 28.646L31.374 28.641L31.854 28.617L32.246 28.572L32.556 28.507L32.791 28.421L32.958 28.311L33.064 28.178L33.115 28.021L33.119 27.839L33.081 27.631L33.01 27.396L32.911 27.133L32.792 26.842L32.659 26.522L32.52 26.172L32.487 26.067L32.457 25.939L32.433 25.788L32.412 25.614L32.395 25.42L32.383 25.205L32.374 24.971L32.369 24.717L32.367 24.446L32.369 24.157L32.374 23.851L32.383 23.53L32.395 23.193L32.41 22.842L32.427 22.478L32.448 22.1L32.471 21.711L32.497 21.31L32.526 20.899L32.557 20.478L32.59 20.049L32.625 19.611L32.663 19.165L32.702 18.713L32.743 18.255L32.786 17.792L32.831 17.324L32.877 16.853L32.925 16.379L32.973 15.903L33.023 15.425L33.074 14.947L33.126 14.47L33.179 13.993L33.233 13.518L33.287 13.045L33.342 12.576L33.397 12.111L33.453 11.65L33.508 11.195L33.564 10.747L33.62 10.305L33.676 9.872L33.731 9.447L33.786 9.031L33.841 8.626L33.895 8.232L33.948 7.849L34 7.479L34.052 7.122L34.103 6.778L34.152 6.45L34.2 6.137L34.247 5.841L34.292 5.562L34.336 5.3L34.378 5.057L34.419 4.833L34.457 4.63L34.494 4.447L34.528 4.286L34.56 4.147L34.59 4.032L34.659 3.706L34.689 3.38L34.68 3.058L34.634 2.74L34.553 2.43L34.44 2.129L34.295 1.84L34.121 1.564L33.918 1.303L33.69 1.06L33.437 0.837L33.162 0.635L32.866 0.458L32.551 0.306L32.219 0.182L31.871 0.089L31.51 0.027L31.136 0L30.752 0.009L30.36 0.057L29.846 0.138L29.433 0.274L29.11 0.457L28.866 0.681L28.691 0.941L28.574 1.228L28.504 1.538L28.471 1.863L28.464 2.197L28.473 2.533L28.486 2.865L28.494 3.187L28.485 3.492M9.135 27.942L9.288 27.527L9.44 27.115L9.592 26.707L9.743 26.303L9.894 25.902L10.044 25.505L10.194 25.111L10.343 24.722L10.492 24.336L10.641 23.953L10.789 23.574L10.937 23.199L11.084 22.828L11.231 22.46L11.377 22.096L11.523 21.735L11.668 21.378L11.813 21.025L11.957 20.675L12.101 20.329L12.245 19.987L12.388 19.648L12.531 19.313L12.673 18.982L12.815 18.654L12.956 18.33L13.097 18.01L13.237 17.693L13.377 17.38L13.517 17.071L13.656 16.765L13.794 16.463L13.932 16.164L14.07 15.869L14.207 15.578L14.344 15.291L14.48 15.007L14.616 14.726L14.752 14.45L14.886 14.177L15.021 13.908L15.155 13.642L15.289 13.38L15.422 13.122L15.554 12.867L15.687 12.616L15.818 12.369L15.95 12.125L16.081 11.885L16.211 11.648L16.341 11.416L16.47 11.186L16.599 10.961L16.728 10.739L16.856 10.521L16.984 10.306L17.111 10.096L17.238 9.888L17.364 9.685L17.49 9.485L17.616 9.289L17.74 9.096L17.865 8.907L18.323 8.23L18.757 7.611L19.169 7.048L19.558 6.539L19.927 6.08L20.274 5.669L20.602 5.304L20.911 4.982L21.202 4.699L21.474 4.454L21.73 4.244L21.97 4.066L22.194 3.918L22.403 3.797L22.599 3.7L22.781 3.625L22.95 3.569L23.108 3.53L23.254 3.504L23.39 3.489L23.517 3.483L23.634 3.483L23.743 3.486L23.845 3.49L23.94 3.492L24.175 3.529L24.478 3.637L24.821 3.809L25.173 4.04L25.506 4.325L25.791 4.657L25.999 5.032L26.1 5.442L26.098 5.477L26.088 5.521L26.069 5.574L26.041 5.635L26.004 5.704L25.958 5.783L25.904 5.87L25.841 5.966L25.769 6.072L25.689 6.186L25.599 6.31L25.501 6.444L25.395 6.586L25.279 6.739L25.155 6.9L25.022 7.072L24.881 7.254L24.731 7.445L24.572 7.647L24.404 7.859L24.228 8.081L24.043 8.313L23.85 8.556L23.648 8.809L23.437 9.073L23.218 9.348L22.99 9.633L22.754 9.93L22.508 10.237L22.255 10.556L21.993 10.885L21.722 11.227L21.443 11.579L21.155 11.943L20.859 12.319L20.554 12.706L20.241 13.105L19.919 13.516L19.588 13.939L19.25 14.374L18.902 14.822L18.546 15.281L18.182 15.753L17.81 16.238L17.429 16.735L17.039 17.244L16.641 17.767L16.235 18.302L15.82 18.851L15.397 19.412L14.965 19.986L14.525 20.574L14.077 21.175L13.62 21.79L13.155 22.418L12.682 23.06L12.2 23.715L11.71 24.384L11.212 25.068L10.705 25.765L10.19 26.476L9.667 27.202L9.135 27.942" sodipodi:nodetypes="ccccccccccccccccccccccccccccccccccccccccccccccccccccccccccccccccccccccccccccccccccccccccccccccccccccccccccccccccccccccccccccccccccccccccccccccccccccccccccccccccccccccccccccccccccccccccccccccccccccccccccccccccccccccccccccccccccccccccccccccccccccccccccccccccccccccccccccccccccccccccccccccccccccccccccccccccccccccccccccccccccccccccccccccccccccccccccccccccccccccccccccccccccccccccccccccccccccccccccccccccccccccccccccccccccccccccccccccccccccccccccccccccccccccccccccccccccccccccccccccccccccccccccccccccccccccccccccccccccccccccccccccccccccccccccccccccccccccccccccccccccccccccccccccccccccccccccc"/><path id="shape2" transform="translate(138.608440297808, 24.6164825172376)" fill="#ffffff" fill-rule="evenodd" stroke="#ffffff" stroke-width="1.68" stroke-linecap="square" stroke-linejoin="bevel" d="M4.70816 74.6407C3.66373 71.9665 -0.0436231 41.5163 0.132653 36.8468C0.25017 33.7339 -0.475682 20.372 0.593581 20.1779C2.61409 19.8112 11.6602 67.6058 11.1516 62.69C10.7701 59.0032 14.082 43.1001 20.259 28.4092C26.436 13.7183 34.9611 2.06764 39.0766 0.244345C41.1672 -0.768947 47.8405 1.54583 47.1923 3.94246C46.5441 6.3391 28.8464 20.141 21.3983 46.142C16.4329 63.4759 14.0153 72.5658 14.1455 73.4115C12.8571 76.1382 10.9603 77.4723 8.45535 77.414C6.60488 77.484 5.77987 77.3847 4.70816 74.6407Z" sodipodi:nodetypes="czszcczzccs"/><path id="shape3" transform="translate(167.248898092567, 25.461694064361)" fill="#ffffff" fill-rule="evenodd" stroke="#ffffff" stroke-width="1.68" stroke-linecap="square" stroke-linejoin="bevel" d="M9.09911 52.4575C12.5251 41.5027 15.2057 34.4808 17.1411 31.392C20.044 26.7587 16.3623 24.4368 13.1343 25.0175C9.90626 25.5982 2.78325 39.7021 2.06106 42.9664C1.33886 46.2308 -0.899683 52.871 0.395642 54.2489C1.69097 55.6268 4.7725 60.0263 8.95147 57.5297C11.7374 55.8652 16.6425 50.3208 23.6665 40.8963C22.8158 42.4313 22.4663 43.8114 22.6179 45.0366C22.8454 46.8743 29.4222 51.2273 31.7739 49.5279C34.1255 47.8285 48.0001 23.3935 50.2091 21.9467C52.4181 20.4999 50.3864 20.6114 49.4921 23.5116C48.5977 26.4118 43.6168 37.4121 43.7363 39.1706C43.8559 40.9291 46.1805 45.3581 50.5715 45.5287C53.4988 45.6424 58.3087 40.3407 65.0013 29.6236C64.662 31.4106 65.1632 33.1756 66.5048 34.9188C68.5171 37.5335 71.0006 41.216 75.4609 39.533C78.4345 38.411 83.7174 32.7222 91.3094 22.4666C90.9607 25.2559 90.7204 27.1868 90.5885 28.2593C90.3906 29.8679 95.1784 34.6724 97.7678 34.3411C100.357 34.0097 100.88 30.9611 100.199 28.8393C99.5178 26.7174 102.697 9.66551 103.917 6.329C105.136 2.99249 105.671 1.70971 104.03 0.325237C102.39 -1.05923 98.8929 2.36531 98.1199 3.32001C97.3469 4.27471 85.4713 22.3724 84.0294 23.5075C82.5876 24.6427 76.0197 35.3215 74.1153 33.8769C72.2109 32.4322 73.9277 25.3502 75.2937 21.5752C76.6597 17.8001 80.7037 7.81901 83.5552 8.46751C85.4563 8.89983 85.3436 10.4104 83.2173 12.9993C84.4852 14.6462 85.4828 15.1755 86.2102 14.5872C87.3012 13.7047 88.6093 11.0013 88.3292 8.51453C88.049 6.02773 83.3085 2.33689 78.5975 5.15177C73.8866 7.96665 67.3097 17.3135 65.8486 21.375C64.8746 24.0827 60.695 29.5617 53.3101 37.812C58.9026 22.8124 61.6526 14.6838 61.5601 13.4262C61.4213 11.5398 59.9795 9.82066 57.8206 10.5293C55.6617 11.2379 48.6171 18.3932 45.6448 22.0611C43.6633 24.5064 40.0424 29.2962 34.7823 36.4308C36.4503 31.3522 37.0774 28.3241 36.6636 27.3464C36.043 25.8799 33.9573 22.8026 32.0568 23.6523C30.1817 24.551 23.0532 37.284 9.09911 52.4575Z" sodipodi:nodetypes="czzzzzczzzzzzczzczzzzzzzzzzczzzzczzzczcc"/><path id="shape4" transform="translate(182.853373254409, 32.8341483532069)" fill="#ffffff" fill-rule="evenodd" stroke="#ffffff" stroke-width="1.68" stroke-linecap="square" stroke-linejoin="bevel" d="M0.00806224 12.2701C0.00806224 12.3532 2.20549 15.8024 3.85806 14.4244C5.51062 13.0465 9.723 6.18978 10.8127 4.9256C11.9024 3.66142 13.2389 2.62908 11.0132 1.34085C8.78749 0.0526077 6.72371 -0.413258 5.71109 0.413489C4.69847 1.24024 -0.225816 7.68799 0.00806224 12.2701Z" sodipodi:nodetypes="czzzcc"/><path id="shape01" transform="translate(268.499673489579, 11.0159976372601)" fill="#ffffff" stroke="#ffffff" stroke-width="1.68" stroke-linecap="square" stroke-linejoin="bevel" d="M0.00673082 10.2491C0.00673082 10.3185 1.84127 13.1996 3.22093 12.0485C4.60058 10.8976 8.11732 5.17025 9.02706 4.1143C9.9368 3.05834 11.0526 2.19604 9.19445 1.12C7.3363 0.0439424 5.61334 -0.34519 4.76794 0.345383C3.92255 1.03596 -0.188524 6.42169 0.00673082 10.2491Z" sodipodi:nodetypes="czzzcc"/><path id="shape6" transform="translate(79.1995318469408, 101.438878732684)" fill="#ffffff" fill-rule="evenodd" stroke="#ffffff" stroke-width="1.68" stroke-linecap="square" stroke-linejoin="bevel" d="M8.03821 21.0991C7.60643 21.4637 6.39763 21.5351 4.41181 21.3135C1.62412 20.2462 0.237131 19.313 0.250838 18.5139C0.271398 17.3154 -1.91061 15.2594 6.23143 11.795C14.3735 8.3305 40.4764 0.76497 49.7699 0.213805C55.9655 -0.153638 54.3159 0.302382 56.4818 0.0717711C60.3018 -0.334958 61.3316 1.09245 59.5377 1.70777C56.8468 2.63075 31.2307 8.5339 29.1618 9.64498C27.0928 10.7561 13.1252 16.1048 10.8378 18.5041C9.4804 19.8834 9.38325 19.8982 8.03821 21.0991Z" sodipodi:nodetypes="cczzzszzcc"/><path id="shape7" transform="translate(155.583642082694, 69.9602302478528)" fill="#ffffff" fill-rule="evenodd" stroke="#ffffff" stroke-width="1.6944" stroke-linecap="square" stroke-linejoin="bevel" d="M0 28.7216C3.74765 24.4891 3.98092 24.3686 8.60873 21.8767C30.2623 12.5141 57.7004 4.75381 82.0345 0.32541C84.2231 -0.0261388 87 -0.0928473 90.3655 0.125285L86.1679 7.53843C59.9906 10.8705 45.1931 13.2211 41.7754 14.5901C38.1287 15.6974 1.99856 28.0384 0 28.7216Z" sodipodi:nodetypes="ccccccc"/>
</svg>
